HIERARCHY
ROOT hip
{
  OFFSET 0 0 0
  CHANNELS 6 Xposition Yposition Zposition Zrotation Yrotation Xrotation
  JOINT abdomen
  {
    OFFSET 0 20.6881 -0.73152
    CHANNELS 3 Zrotation Xrotation Yrotation
    JOINT chest
    {
      OFFSET 0 11.7043 -0.48768
      CHANNELS 3 Zrotation Xrotation Yrotation
      JOINT neck
      {
        OFFSET 0 22.1894 -2.19456
        CHANNELS 3 Zrotation Xrotation Yrotation
        JOINT head
        {
          OFFSET -0.24384 7.07133 1.2192
          CHANNELS 3 Zrotation Xrotation Yrotation
          JOINT leftEye
          {
            OFFSET 4.14528 8.04674 8.04672
            CHANNELS 3 Zrotation Xrotation Yrotation
            End Site
            {
              OFFSET 1 0 0
            }
          }
          JOINT rightEye
          {
            OFFSET -3.6576 8.04674 8.04672
            CHANNELS 3 Zrotation Xrotation Yrotation
            End Site
            {
              OFFSET 1 0 0
            }
          }
        }
      }
      JOINT rCollar
      {
        OFFSET -2.68224 19.2634 -4.8768
        CHANNELS 3 Zrotation Xrotation Yrotation
        JOINT rShldr
        {
          OFFSET -8.77824 -1.95073 1.46304
          CHANNELS 3 Zrotation Xrotation Yrotation
          JOINT rForeArm
          {
            OFFSET -28.1742 -1.7115 0.48768
            CHANNELS 3 Zrotation Xrotation Yrotation
            JOINT rHand
            {
              OFFSET -22.5879 0.773209 7.07136
              CHANNELS 3 Zrotation Xrotation Yrotation
              JOINT rThumb1
              {
                OFFSET -1.2192 -0.487915 3.41376
                CHANNELS 3 Zrotation Xrotation Yrotation
                JOINT rThumb2
                {
                  OFFSET -3.37035 -0.52449 3.41376
                  CHANNELS 3 Zrotation Xrotation Yrotation
                  End Site
                  {
                    OFFSET -1.78271 -1.18214 1.43049
                  }
                }
              }
              JOINT rIndex1
              {
                OFFSET -7.75947 0.938293 5.60832
                CHANNELS 3 Zrotation Xrotation Yrotation
                JOINT rIndex2
                {
                  OFFSET -2.54057 -0.884171 1.56538
                  CHANNELS 3 Zrotation Xrotation Yrotation
                  End Site
                  {
                    OFFSET -1.62519 -0.234802 1.16502
                  }
                }
              }
              JOINT rMid1
              {
                OFFSET -8.24714 1.18213 3.41376
                CHANNELS 3 Zrotation Xrotation Yrotation
                JOINT rMid2
                {
                  OFFSET -3.10165 -0.590103 1.0647
                  CHANNELS 3 Zrotation Xrotation Yrotation
                  End Site
                  {
                    OFFSET -2.48547 -0.328903 0.83742
                  }
                }
              }
              JOINT rRing1
              {
                OFFSET -8.82822 0.546677 1.51678
                CHANNELS 3 Zrotation Xrotation Yrotation
                JOINT rRing2
                {
                  OFFSET -2.60934 -0.819778 -0.0198488
                  CHANNELS 3 Zrotation Xrotation Yrotation
                  End Site
                  {
                    OFFSET -2.33842 -0.294052 0.168128
                  }
                }
              }
              JOINT rPinky1
              {
                OFFSET -8.27202 -0.0477905 -0.4584
                CHANNELS 3 Zrotation Xrotation Yrotation
                JOINT rPinky2
                {
                  OFFSET -1.82734 -0.647385 -0.700984
                  CHANNELS 3 Zrotation Xrotation Yrotation
                  End Site
                  {
                    OFFSET -1.69225 -0.51767 -0.607171
                  }
                }
              }
            }
          }
        }
      }
      JOINT lCollar
      {
        OFFSET 2.68224 19.2634 -4.8768
        CHANNELS 3 Zrotation Xrotation Yrotation
        JOINT lShldr
        {
          OFFSET 8.77824 -1.95073 1.46304
          CHANNELS 3 Zrotation Xrotation Yrotation
          JOINT lForeArm
          {
            OFFSET 28.1742 -1.7115 0.48768
            CHANNELS 3 Zrotation Xrotation Yrotation
            JOINT lHand
            {
              OFFSET 22.5879 0.773209 7.07136
              CHANNELS 3 Zrotation Xrotation Yrotation
              JOINT lThumb1
              {
                OFFSET 1.2192 -0.487915 3.41376
                CHANNELS 3 Zrotation Xrotation Yrotation
                JOINT lThumb2
                {
                  OFFSET 3.37035 -0.52449 3.41376
                  CHANNELS 3 Zrotation Xrotation Yrotation
                  End Site
                  {
                    OFFSET 1.78271 -1.18214 1.43049
                  }
                }
              }
              JOINT lIndex1
              {
                OFFSET 7.75947 0.938293 5.60832
                CHANNELS 3 Zrotation Xrotation Yrotation
                JOINT lIndex2
                {
                  OFFSET 2.54057 -0.884171 1.56538
                  CHANNELS 3 Zrotation Xrotation Yrotation
                  End Site
                  {
                    OFFSET 1.62519 -0.234802 1.16502
                  }
                }
              }
              JOINT lMid1
              {
                OFFSET 8.24714 1.18213 3.41376
                CHANNELS 3 Zrotation Xrotation Yrotation
                JOINT lMid2
                {
                  OFFSET 3.10165 -0.590103 1.0647
                  CHANNELS 3 Zrotation Xrotation Yrotation
                  End Site
                  {
                    OFFSET 2.48547 -0.328903 0.83742
                  }
                }
              }
              JOINT lRing1
              {
                OFFSET 8.82822 0.546677 1.51678
                CHANNELS 3 Zrotation Xrotation Yrotation
                JOINT lRing2
                {
                  OFFSET 2.60934 -0.819778 -0.0198488
                  CHANNELS 3 Zrotation Xrotation Yrotation
                  End Site
                  {
                    OFFSET 2.33842 -0.294052 0.168128
                  }
                }
              }
              JOINT lPinky1
              {
                OFFSET 8.27202 -0.0477905 -0.4584
                CHANNELS 3 Zrotation Xrotation Yrotation
                JOINT lPinky2
                {
                  OFFSET 1.82734 -0.647385 -0.700984
                  CHANNELS 3 Zrotation Xrotation Yrotation
                  End Site
                  {
                    OFFSET 1.69225 -0.51767 -0.607171
                  }
                }
              }
            }
          }
        }
      }
    }
  }
  JOINT rButtock
  {
    OFFSET -8.77824 4.35084 1.2192
    CHANNELS 3 Zrotation Xrotation Yrotation
    JOINT rThigh
    {
      OFFSET 0 -1.70687 -2.19456
      CHANNELS 3 Zrotation Xrotation Yrotation
      JOINT rShin
      {
        OFFSET 0 -36.8199 0.73152
        CHANNELS 3 Zrotation Xrotation Yrotation
        JOINT rFoot
        {
          OFFSET 0.73152 -45.1104 -5.12064
          CHANNELS 3 Zrotation Xrotation Yrotation
          End Site
          {
            OFFSET -1.1221 -3.69964 12.103
          }
        }
      }
    }
  }
  JOINT lButtock
  {
    OFFSET 8.77824 4.35084 1.2192
    CHANNELS 3 Zrotation Xrotation Yrotation
    JOINT lThigh
    {
      OFFSET 0 -1.70687 -2.19456
      CHANNELS 3 Zrotation Xrotation Yrotation
      JOINT lShin
      {
        OFFSET 0 -36.8199 0.73152
        CHANNELS 3 Zrotation Xrotation Yrotation
        JOINT lFoot
        {
          OFFSET -0.73152 -45.1104 -5.12064
          CHANNELS 3 Zrotation Xrotation Yrotation
          End Site
          {
            OFFSET 1.1221 -3.69964 12.103
          }
        }
      }
    }
  }
}
MOTION
Frames:	4
Frame Time:	0.03333
0.2598363906145096 -2.986309677362442 1.4934569597244263 -0.5822898484428658 0.030117318938774545 0.4837951055166969 0.25301611355135073 -1.1974392033741341 -1.485809896853778 -1.418628583064356 1.2423399064824459 -0.09583426418252991 0.8642689789632589 -0.6457837138541275 -1.4156744195266195 1.656734100172878 -1.4657950947081135 0.2005550713827092 1.1996929523568267 -1.6360124801698228 1.2288268040963988 0.6589144323683597 0.6489965708066779 -1.7162120277955837 -1.1840279134954024 0.6375032834242506 -1.3320964895826413 1.2916144919805046 -0.2949194041506583 0.10015543938983401 -1.6037279902321708 0.9994596602572617 -1.4785111993953848 -0.5560001301623694 -1.0479037374409292 1.8930577916816729 1.3331673351784523 0.6259014067061905 -1.515809154905532 -0.6244845159793831 -1.662146064594761 -0.5153684553678742 -0.871448148111177 1.3728346192786534 -1.6243238920658154 -0.39345440784033325 -1.5405506614002569 -0.5448769536555921 -1.5026559181113799 0.8850274713156615 1.4449552270550527 0.5208840465660711 -1.3228277094355223 -0.5219146047179497 -1.3100488523852516 2.1964214974414356 0.41983964204750407 -1.419121744066772 -1.0986936644393788 -0.0024733022119115314 1.209846348723168 1.5465278239759586 -1.5405321985451568 0.9485936406825901 1.210973863544749 1.4102327864705293 -1.990009338742242 0.09642733671187725 -0.6869905652819317 -0.16779736406140905 0.5628599346057365 -0.5570919999342194 -0.7967636047142312 0.2316744671181319 0.6302703798974716 0.4238026458699924 1.8508450881768783 0.5625040710778082 -0.18360367578086148 1.323437303818946 -0.697792456093454 -0.9138739748624171 -0.5180566150539503 -1.3394150372783098 -1.1547367539615085 0.48629111277151343 -0.8084215103278265 1.3513095982744756 1.8097913823968705 0.9071883936037382 -0.7881047924765063 -1.1410785100555987 -1.5067214814931242 0.3773214743403367 1.753659286972119 1.1440536977693738 0.8134421262546091 -1.0526534936784384 0.9398346701239892 1.2543174969657094 0.015247276744142762 1.4190506674107215 1.0990011296737352 -1.61747833497017 -0.031341283501955544 -0.09469875857322851 1.6733271909877776 -0.5774661874241029 1.4293998981071718 -1.3649119200065558 -1.6961159037101137 0.2607191261920971 0.8430096950064769 0.8497762780398439 -0.040897358481038065 0.7965128087056449 -0.37075670205260236 -0.4453295345040214 0.2648363962402925 1.5083443984729428 -0.1323215349351347 -1.3370862629364528 1.383731118882351 1.1557288389384528 -0.6866333677326812 0.17750837227685978 -0.5455260884310077 0.21054116813502485 0.6116573673572463 0.19577854133726208 0.004511286585940531 -1.1865182644998125
0.5695093655958772 -3.202427551150322 2.7776092290878296 -0.503782266740564 0.10743252570280658 0.5868720516022982 0.3048709630909404 -1.2714264805063566 -1.453133844977614 -1.62755916057658 1.4550286888637636 -0.2307131179924526 1.0556564290357169 -0.5152461522930487 -1.40590500785768 1.8954997977533639 -1.4748670800297714 0.1796473554051977 1.062986395953904 -1.6222015175029396 1.1315311862563902 0.7156224514783607 0.80487904338697 -1.705519153206517 -1.257693958293223 0.6002047943055746 -1.2404448491528846 1.1473432876283813 -0.11986491073525783 -0.013875422577175122 -1.722557486977937 0.9631454654310081 -1.5532464889634297 -0.6263977159989272 -0.942210935624919 1.98827190937212 1.2815835054106945 0.656716819002908 -1.497519722577236 -0.7323867772701868 -1.6429089435191258 -0.4399672490361796 -0.6133742527990054 1.3120315282352595 -1.6578025978911617 -0.3207241256392309 -1.5370653439328463 -0.6021320815902818 -1.5750176102211395 0.9159807680562486 1.486982981843728 0.5915005186211867 -1.2239383096413736 -0.605496910251865 -1.315336165854782 2.4709011869748605 0.32537479077292203 -1.277423813484451 -1.131812077786007 -0.0933446202094206 1.0164814521642855 1.5423331273302188 -1.4442803189876907 0.9202281852246444 1.388664436453804 1.4526747281993422 -2.0978972993244707 0.026780171219628297 -0.576192197061337 -0.45566982725761246 0.6567815990783173 -0.495562507600424 -0.8170687432604743 0.36488516728519793 0.7279365354999533 0.3087385843888866 1.871345260640437 0.6327997910461977 -0.26250807546568505 1.3642234582825599 -0.7819608772355211 -0.9451997837170343 -0.5039447505376163 -1.4562289878886876 -1.2286221118647098 0.523558065626131 -0.7877052797709134 1.1816054374958693 2.0269843543706942 1.022217423684921 -0.7620095211439436 -1.1334654104519732 -1.46181021293594 0.539464935872856 1.818653552844962 1.0461856246995538 1.0013744611023925 -1.0927613249801054 1.0445055048854364 1.2670205816048754 -0.028716890035083924 1.5413029427043103 1.0474480357572424 -1.5981062109367214 -0.14161420740413538 0.10904226255196106 1.8499249336296308 -0.7523790611359314 1.3454622092930042 -1.404086469991164 -1.6654371485576493 0.26744910368038105 0.7599407742382231 0.728232101264115 -0.04328899190760035 0.7793886706827766 -0.177365925480068 -0.295894733819795 0.43526802552635796 1.642481096200648 -0.07101912638092238 -1.2688056088557758 1.4820071890333735 0.9978903175737456 -0.7782455211312986 0.136037838194496 -0.4336405461936173 0.3752130269600655 0.7099992848007362 0.13868232202248096 -0.011439472962287098 -1.3522563265264627
0.8693953743204474 -3.2738734036684036 3.9763648062944412 -0.4895668288087693 0.12614132097397066 0.6545951381311199 0.3813524332089813 -1.2933622733560874 -1.447498191860413 -1.7216595305454918 1.5930057671740143 -0.32719428913479 1.1388578448016984 -0.3830429050285595 -1.3990230586603631 2.0147745374556503 -1.4707436734834936 0.20222043692100225 0.9985279797657898 -1.6510325997632098 1.0367479040921828 0.7656626051328427 0.8986721082040843 -1.67503121646399 -1.3020048105336806 0.5704441126270952 -1.2174683062283733 1.0760427294392065 -0.012657407749091442 -0.04322266436745718 -1.80340536896632 0.9796648115472129 -1.5868271140177974 -0.6736438420351979 -0.857670322533939 2.0034618231994052 1.2876418832044958 0.6648478390446909 -1.4869302613210718 -0.7950091532320371 -1.6227294697814405 -0.39667596261190496 -0.47469142384842195 1.2575100767941616 -1.6921649594403785 -0.3062227535772212 -1.4734050993822714 -0.6222393580940059 -1.5941352029862994 0.9544940703518349 1.4794322077162787 0.6608256046754938 -1.161329807501275 -0.6615395728871717 -1.3129128360816025 2.625260474009387 0.301486417594214 -1.2033914997923887 -1.1490206326781482 -0.13151641304650621 0.9485461495235173 1.5212780019965966 -1.3678920169187971 0.9137057814541054 1.506671322291407 1.4734207874730212 -2.1111162766893843 -0.026628506335499635 -0.522242613880669 -0.5908683525969902 0.7124779497783632 -0.4707251116530544 -0.7785978094820832 0.4398766156275447 0.7990540126028598 0.23045842664160515 1.8593516619013062 0.6465439992861145 -0.2931795468617298 1.3540578956417595 -0.85449828663385 -0.9590638937933965 -0.48613604613301303 -1.5206006393300018 -1.261380126010914 0.5168132004598907 -0.7547362768123792 1.0784749171139658 2.126592418131575 1.0737733990874698 -0.7338745845704859 -1.176218552674845 -1.4418253995896002 0.6518948121705848 1.8722041569285661 0.9961245002298857 1.0691342065371503 -1.1342285773700163 1.103863797475961 1.3118853194983389 -0.02903281296462346 1.6234903955436621 1.059721565530638 -1.5720869254586751 -0.19648853416539963 0.2336895330058443 1.966124807544942 -0.865454070145109 1.2772877433095797 -1.423982384156588 -1.646209845878946 0.28222240264872195 0.736144715335016 0.6402229260135321 -0.07687685402764134 0.7565851770041899 -0.06048650110319331 -0.21266850525721936 0.5469921245033275 1.680571673819634 0.023430230236001496 -1.2218826361446113 1.5013275530395183 0.9654431837564826 -0.8177192120572122 0.0732297531243727 -0.3548611443066902 0.46887679843062546 0.7616957593289462 0.06677606479214368 -0.008996693158229062 -1.4263701756017422
1.134461141191423 -3.271910548210144 5.1453569903969765 -0.48823515536402834 0.12120832356763471 0.6986049818004211 0.45110939532615957 -1.2956083383759638 -1.4501149013644683 -1.7652540666967445 1.6736494905392376 -0.3973486562038719 1.1575168543971153 -0.25898625917489726 -1.3912099625801033 2.0799945197362213 -1.454140337384839 0.2351342247370078 0.9750494179372825 -1.7039314543896065 0.968976952878318 0.8048854466893169 0.9582649751039166 -1.6329539428038322 -1.3273234680132717 0.5431881360224535 -1.2283008795303076 1.0372736152148623 0.042773632790381724 -0.04303435391760581 -1.8472758874487236 1.0090152016278153 -1.6007922895495348 -0.7083416299056858 -0.8024083825372765 1.990390762118705 1.3264097167683708 0.6672880308473838 -1.4789199435285278 -0.8390824429554253 -1.6154878684356402 -0.37280861360923584 -0.4001145092917568 1.2104502868561853 -1.7038114991923081 -0.3205753022205187 -1.4011410576333019 -0.6275442272841373 -1.5863490007758965 0.997017013855336 1.4564106282319276 0.7172314412755747 -1.1177013338475839 -0.7049779751828661 -1.3116164875214753 2.702092845096037 0.2903521687104619 -1.1540598181817368 -1.1656984605274385 -0.14614022158547377 0.9445916834374916 1.5061729319254076 -1.3046589793564654 0.9170459574016533 1.5809472816377685 1.4859784104272071 -2.091734334259004 -0.06969727800321995 -0.4903699630056276 -0.6506566269401084 0.7446547575148817 -0.45473553208434875 -0.7321733872194768 0.475906823994714 0.8488677027976735 0.17719495730740611 1.839090546058698 0.638272213314406 -0.3025336243321945 1.319297782295095 -0.9047303792761798 -0.9636390533202472 -0.4553227149095583 -1.5623156995207372 -1.281704421103345 0.4930908862553785 -0.7323008129361799 1.0162471980200953 2.170864850557952 1.0850826982491302 -0.7171766930405089 -1.217835749061379 -1.433259381875052 0.7298402906485356 1.9174586424915434 0.9568006465788893 1.0834802718368217 -1.162063199063405 1.14111009968051 1.3596242863719081 -0.009270461013984923 1.6689709176794847 1.102120071525198 -1.549688494014382 -0.21995634378204942 0.3098373910716124 2.0303800256052487 -0.9269029875910395 1.2235645702277271 -1.4321801052644842 -1.6348190113340688 0.28269517980533376 0.7336138634432618 0.5836180000713159 -0.09624352191388193 0.7314969316873811 0.013289627134140747 -0.1723648929862964 0.6175558226749341 1.6880457150406263 0.10255104819993664 -1.1866455834948098 1.4831733371124474 0.9849266185290614 -0.839878586880555 0.012659462141927735 -0.2983717979718353 0.5173950471998111 0.7944139129180411 -0.0021634891000279844 -0.0040620415654535206 -1.4471634058693768
